Track 0: 2OpenSaurceVSTTest
MetaMessage('track_name', name='2OpenSaurceVSTTest', time=0)
MetaMessage('time_signature', numerator=4, denominator=4, clocks_per_click=24, notated_32nd_notes_per_beat=8, time=0)
MetaMessage('set_tempo', tempo=681818, time=0)
MetaMessage('end_of_track', time=0)
Track 1: Blooks-clap
MetaMessage('track_name', name='Blooks-clap', time=0)
note_on channel=0 note=42 velocity=127 time=1440
note_off channel=0 note=42 velocity=0 time=480
note_on channel=0 note=42 velocity=127 time=480
note_off channel=0 note=42 velocity=0 time=480
note_on channel=0 note=42 velocity=127 time=480
note_off channel=0 note=42 velocity=0 time=480
note_on channel=0 note=42 velocity=127 time=480
note_off channel=0 note=42 velocity=0 time=480
MetaMessage('end_of_track', time=0)
Track 2: blocks-snare
MetaMessage('track_name', name='blocks-snare', time=0)
note_on channel=0 note=50 velocity=127 time=1920
note_off channel=0 note=50 velocity=0 time=960
note_on channel=0 note=50 velocity=127 time=960
note_off channel=0 note=50 velocity=0 time=480
note_on channel=0 note=50 velocity=127 time=240
note_off channel=0 note=50 velocity=0 time=240
MetaMessage('end_of_track', time=0)
Track 3: blocks-kick
MetaMessage('track_name', name='blocks-kick', time=0)
note_on channel=0 note=45 velocity=127 time=960
note_off channel=0 note=45 velocity=0 time=720
note_on channel=0 note=45 velocity=127 time=240
note_off channel=0 note=45 velocity=0 time=720
note_on channel=0 note=45 velocity=127 time=240
note_off channel=0 note=45 velocity=0 time=720
note_on channel=0 note=45 velocity=127 time=240
note_off channel=0 note=45 velocity=0 time=720
MetaMessage('end_of_track', time=0)
